<?xml version="1.0" encoding="UTF-8"?>
<svg height="128px" viewBox="0 0 128 128" width="128px" xmlns="http://www.w3.org/2000/svg" xmlns:xlink="http://www.w3.org/1999/xlink">
    <clipPath id="a">
        <path d="m 23 16 h 83 v 82 h -83 z m 0 0"/>
    </clipPath>
    <clipPath id="b">
        <path d="m 26.761719 35.140625 c -11.875 20.566406 -4.828125 46.867187 15.738281 58.738281 c 20.566406 11.875 46.863281 4.828125 58.738281 -15.738281 s 4.828125 -46.863281 -15.738281 -58.738281 s -46.863281 -4.828125 -58.738281 15.738281 z m 29.789062 17.199219 c 2.375 -4.113282 7.636719 -5.519532 11.75 -3.144532 s 5.523438 7.632813 3.148438 11.746094 c -2.375 4.113282 -7.636719 5.523438 -11.75 3.148438 s -5.523438 -7.636719 -3.148438 -11.75 z m 0 0"/>
    </clipPath>
    <clipPath id="c">
        <path d="m 20 13 h 88 v 87 h -88 z m 0 0"/>
    </clipPath>
    <clipPath id="d">
        <path d="m 26.761719 35.140625 c -11.875 20.566406 -4.828125 46.867187 15.738281 58.738281 c 20.566406 11.875 46.863281 4.828125 58.738281 -15.738281 s 4.828125 -46.863281 -15.738281 -58.738281 s -46.863281 -4.828125 -58.738281 15.738281 z m 29.789062 17.199219 c 2.375 -4.113282 7.636719 -5.519532 11.75 -3.144532 s 5.523438 7.632813 3.148438 11.746094 c -2.375 4.113282 -7.636719 5.523438 -11.75 3.148438 s -5.523438 -7.636719 -3.148438 -11.75 z m 0 0"/>
    </clipPath>
    <filter id="e" height="100%" width="100%" x="0%" y="0%">
        <feColorMatrix in="SourceGraphic" type="matrix" values="0 0 0 0 1 0 0 0 0 1 0 0 0 0 1 0 0 0 1 0"/>
    </filter>
    <mask id="f">
        <g filter="url(#e)">
            <rect fill-opacity="0.488" height="128" width="128"/>
        </g>
    </mask>
    <clipPath id="g">
        <rect height="152" width="192"/>
    </clipPath>
    <mask id="h">
        <g filter="url(#e)">
            <rect fill-opacity="0.723928" height="128" width="128"/>
        </g>
    </mask>
    <clipPath id="i">
        <rect height="152" width="192"/>
    </clipPath>
    <clipPath id="j">
        <path d="m 64 13 h 44 v 44 h -44 z m 0 0"/>
    </clipPath>
    <clipPath id="k">
        <path d="m 26.761719 35.140625 c -11.875 20.566406 -4.828125 46.867187 15.738281 58.738281 c 20.566406 11.875 46.863281 4.828125 58.738281 -15.738281 s 4.828125 -46.863281 -15.738281 -58.738281 s -46.863281 -4.828125 -58.738281 15.738281 z m 29.789062 17.199219 c 2.375 -4.113282 7.636719 -5.519532 11.75 -3.144532 s 5.523438 7.632813 3.148438 11.746094 c -2.375 4.113282 -7.636719 5.523438 -11.75 3.148438 s -5.523438 -7.636719 -3.148438 -11.75 z m 0 0"/>
    </clipPath>
    <clipPath id="l">
        <path d="m 20 13 h 88 v 87 h -88 z m 0 0"/>
    </clipPath>
    <clipPath id="m">
        <path d="m 26.761719 35.140625 c -11.875 20.566406 -4.828125 46.867187 15.738281 58.738281 c 20.566406 11.875 46.863281 4.828125 58.738281 -15.738281 s 4.828125 -46.863281 -15.738281 -58.738281 s -46.863281 -4.828125 -58.738281 15.738281 z m 29.789062 17.199219 c 2.375 -4.113282 7.636719 -5.519532 11.75 -3.144532 s 5.523438 7.632813 3.148438 11.746094 c -2.375 4.113282 -7.636719 5.523438 -11.75 3.148438 s -5.523438 -7.636719 -3.148438 -11.75 z m 0 0"/>
    </clipPath>
    <mask id="n">
        <g filter="url(#e)">
            <rect fill-opacity="0.759785" height="128" width="128"/>
        </g>
    </mask>
    <clipPath id="o">
        <rect height="152" width="192"/>
    </clipPath>
    <clipPath id="p">
        <path d="m 20 22 h 88 v 98 h -88 z m 0 0"/>
    </clipPath>
    <clipPath id="q">
        <path d="m 24 22 h 80 c 2.210938 0 4 1.789062 4 4 v 90 c 0 2.210938 -1.789062 4 -4 4 h -80 c -2.210938 0 -4 -1.789062 -4 -4 v -90 c 0 -2.210938 1.789062 -4 4 -4 z m 0 0"/>
    </clipPath>
    <mask id="r">
        <g filter="url(#e)">
            <rect fill-opacity="0.3" height="128" width="128"/>
        </g>
    </mask>
    <clipPath id="s">
        <rect height="152" width="192"/>
    </clipPath>
    <linearGradient id="t" gradientTransform="matrix(1.732057 1.000004 -1.025 1.775352 -29.14096 -642.518232)" gradientUnits="userSpaceOnUse" x1="226.90625" x2="228.86203" y1="288.75" y2="288.767151">
        <stop offset="0"/>
        <stop offset="0.443872" stop-color="#77767b"/>
        <stop offset="1"/>
    </linearGradient>
    <linearGradient id="u" gradientTransform="matrix(1.027497 0.593225 -0.5 0.866025 -19.838382 -287.41154)" gradientUnits="userSpaceOnUse" x1="223.1875" x2="233.0625" y1="278" y2="278">
        <stop offset="0" stop-color="#deddda"/>
        <stop offset="0.265823" stop-color="#f6f5f4"/>
        <stop offset="0.734177" stop-color="#c0bfbc"/>
        <stop offset="1" stop-color="#deddda"/>
    </linearGradient>
    <linearGradient id="v" gradientUnits="userSpaceOnUse">
        <stop offset="0" stop-color="#ed333b"/>
        <stop offset="0.323117" stop-color="#faaea5"/>
        <stop offset="0.59387" stop-color="#d21624"/>
        <stop offset="1" stop-color="#e84149"/>
    </linearGradient>
    <linearGradient id="w" gradientTransform="matrix(1.284371 0.741532 -0.5 0.866025 -78.405699 -321.225396)" x1="224.504562" x2="231.453873" xlink:href="#v" y1="282.5" y2="282.5"/>
    <linearGradient id="x" gradientTransform="matrix(0.866025 0.5 -0.5 0.866025 30.874288 -290.464182)" x1="222.000015" x2="234.000015" xlink:href="#v" y1="220.500031" y2="220.500031"/>
    <path d="m 28 22 h 72 c 4.417969 0 8 3.582031 8 8 v 58 c 0 4.417969 -3.582031 8 -8 8 h -72 c -4.417969 0 -8 -3.582031 -8 -8 v -58 c 0 -4.417969 3.582031 -8 8 -8 z m 0 0" fill="#c01c28"/>
    <g clip-path="url(#a)">
        <g clip-path="url(#b)">
            <path d="m 29.242188 36.574219 c 11.085937 -19.195313 35.90625 -25.609375 55.445312 -14.332031 c 19.539062 11.28125 26.394531 35.988281 15.3125 55.183593 c -11.085938 19.195313 -35.90625 25.609375 -55.445312 14.332031 c -19.539063 -11.28125 -26.394532 -35.988281 -15.3125 -55.183593 z m 0 0" fill="#d5d3cf"/>
        </g>
    </g>
    <g clip-path="url(#c)">
        <g clip-path="url(#d)">
            <path d="m 26.761719 35.140625 c -11.875 20.566406 -4.828125 46.867187 15.738281 58.738281 c 20.566406 11.875 46.863281 4.828125 58.738281 -15.738281 s 4.828125 -46.863281 -15.738281 -58.738281 s -46.863281 -4.828125 -58.738281 15.738281 z m 29.789062 17.199219 c 2.375 -4.113282 7.636719 -5.519532 11.75 -3.144532 s 5.523438 7.632813 3.148438 11.746094 c -2.375 4.113282 -7.636719 5.523438 -11.75 3.148438 s -5.523438 -7.636719 -3.148438 -11.75 z m 0 0" fill="#8adfed"/>
            <g clip-path="url(#g)" mask="url(#f)" transform="matrix(1 0 0 1 -8 -16)">
                <path d="m 120.960167 236.501241 c -0.001904 31.457459 -25.501187 56.960739 -56.958647 56.958835 c -31.462179 0.000821 -56.960738 -25.501188 -56.96156 -56.963367 c -0.002816 -31.454734 25.503913 -56.956019 56.958647 -56.958835 c 31.457459 0.001904 56.963464 25.505908 56.96156 56.963367 z m 0 0" fill="none" stroke="#ffffff" stroke-width="1.39535" transform="matrix(0.358333 -0.620652 0.620652 0.358333 -97.664068 27.648149)"/>
            </g>
            <g clip-path="url(#i)" mask="url(#h)" transform="matrix(1 0 0 1 -8 -16)">
                <path d="m 66.683594 23.359375 l 5.316406 49.28125 l 40.765625 -37.421875" fill="#fcfefe" fill-opacity="0.465832"/>
            </g>
        </g>
    </g>
    <g clip-path="url(#j)">
        <g clip-path="url(#k)">
            <path d="m 83.476562 10.042969 l -19.476562 46.597656 l 46.089844 -20.3125" fill="#fcfefe" fill-opacity="0.465832"/>
        </g>
    </g>
    <g clip-path="url(#l)">
        <g clip-path="url(#m)">
            <g clip-path="url(#o)" mask="url(#n)" transform="matrix(1 0 0 1 -8 -16)">
                <path d="m 8 53.84375 l 64 18.796875 l -38.894531 -49.261719" fill="#fcfefe" fill-opacity="0.465832"/>
            </g>
        </g>
    </g>
    <path d="m 68.818272 238.500017 c -0.001244 5.052533 -4.095574 9.148446 -9.148107 9.147202 s -9.148446 -4.095573 -9.147202 -9.148106 c -0.002139 -5.05058 4.095574 -9.148446 9.148107 -9.147202 s 9.148446 4.095573 9.147202 9.148106 z m 0 0" fill="none" stroke="#f6f5f4" stroke-width="8" transform="matrix(0.5 -0.866025 0.866025 0.5 -172.381991 -10.932887)"/>
    <path d="m 63.67126 238.499194 c -0.000333 2.210361 -1.78991 4.001346 -4.000271 4.001014 c -2.210362 -0.000333 -4.001347 -1.789911 -4.001014 -4.000272 s 1.78991 -4.001346 4.000271 -4.001014 c 2.210362 0.000333 3.997964 1.791864 4.001014 4.000272 z m 0 0" fill="#c0bfbc" stroke="#5e5c64" stroke-width="3" transform="matrix(0.5 -0.866025 0.866025 0.5 -172.381991 -10.932887)"/>
    <path d="m 20 66 v 46 c 0 4.433594 3.566406 8 8 8 h 72 c 4.433594 0 8 -3.566406 8 -8 v -46 h -30.773438 c -2.980468 4.378906 -7.929687 7 -13.226562 7 s -10.25 -2.621094 -13.230469 -7 z m 0 0" fill="#e01b24"/>
    <path d="m 36 80 h 56 c 1.105469 0 2 0.894531 2 2 v 26 c 0 1.105469 -0.894531 2 -2 2 h -56 c -1.105469 0 -2 -0.894531 -2 -2 v -26 c 0 -1.105469 0.894531 -2 2 -2 z m 0 0" fill="#ffffff"/>
    <path d="m 40 90 h 48" fill="none" stroke="#c0bfbc" stroke-width="4"/>
    <path d="m 40 98 h 30" fill="none" stroke="#c0bfbc" stroke-width="4.00001"/>
    <g clip-path="url(#p)">
        <g clip-path="url(#q)">
            <g clip-path="url(#s)" mask="url(#r)" transform="matrix(1 0 0 1 -8 -16)">
                <path d="m 125.5 26.695312 l -2.367188 2.097657 l -0.5 0.867187 l -0.5 0.863282 l -0.5 0.867187 l -39.5 68.414063 l 0.160157 0.09375 l -0.996094 3.246093 c -0.019531 0.027344 -0.039063 0.054688 -0.046875 0.085938 l -2.019531 5.933593 c -0.082031 0.238282 0.03125 0.535157 0.347656 0.714844 l 0.21875 0.128906 l -0.433594 1.671876 c -0.042969 0.183593 -0.011719 0.378906 0.175781 0.488281 l 0.132813 0.074219 c -0.851563 1.992187 -0.914063 3.652343 -0.15625 4.089843 c 0.761719 0.441407 2.167969 -0.445312 3.464844 -2.179687 l 0.273437 0.160156 c 0.191406 0.109375 0.375 0.035156 0.511719 -0.089844 c 0 0 0.75 -0.652344 1.289063 -1.179687 l 0.226562 0.128906 c 0.316406 0.183594 0.632812 0.136719 0.792969 -0.054687 l 3.675781 -4.269532 l 2.816406 -3.015625 l 40.003906 -69.28125 l -0.046874 -0.027343 l 0.5 -0.863282 l 0.5 -0.867187 l 0.636718 -3.097657 z m 0 0"/>
            </g>
        </g>
    </g>
    <path d="m 113.347656 15.804688 l 8.21875 4.746093 l -39.996094 69.28125 l -8.222656 -4.746093 z m 0 0" fill="#deddda"/>
    <path d="m 112.320312 15.210938 l 6.164063 3.558593 l -40 69.285157 l -6.164063 -3.5625 z m 0 0" fill="#c0bfbc"/>
    <path d="m 111.132812 14.527344 l 2.539063 1.464844 l -40 69.28125 l -2.539063 -1.464844 z m 0 0" fill="#f6f5f4"/>
    <path d="m 72.8125 96.894531 c -1.414062 2.453125 -3.335938 3.992188 -4.292969 3.441407 c -0.957031 -0.554688 -0.585937 -2.988282 0.828125 -5.441407 c 1.417969 -2.449219 3.339844 -3.988281 4.296875 -3.4375 c 0.957031 0.554688 0.582031 2.988281 -0.832031 5.4375 z m 0 0" fill="url(#t)"/>
    <path d="m 71.292969 83.902344 l -2.894531 9.410156 l 6.414062 3.75 l 6.757812 -7.230469 z m -1.613281 9.523437 l 4.449218 2.566407 c 0.285156 0.167968 0.449219 0.523437 0.261719 0.730468 c -0.472656 0.523438 -1.625 1.5 -1.625 1.5 c -0.136719 0.125 -0.320313 0.199219 -0.511719 0.089844 l -3.710937 -2.144531 c -0.191407 -0.109375 -0.222657 -0.304688 -0.175781 -0.484375 l 0.546874 -2.121094 c 0.070313 -0.273438 0.480469 -0.300781 0.765626 -0.136719 z m 0 0" fill="url(#u)"/>
    <path d="m 70.8125 87.085938 l 8.054688 4.652343 c 0.324218 0.1875 0.457031 0.480469 0.269531 0.664063 l -4.0625 4.714844 c -0.160157 0.191406 -0.476563 0.238281 -0.789063 0.058593 l -5.707031 -3.296875 c -0.316406 -0.179687 -0.429687 -0.476562 -0.347656 -0.710937 l 2.023437 -5.933594 c 0.027344 -0.207031 0.304688 -0.292969 0.558594 -0.148437 z m 0 0" fill="url(#w)"/>
    <path d="m 112.132812 12.792969 l -1.5 2.597656 l 10.390626 6 l 1.5 -2.597656 l 0.632812 -3.097657 l -8.660156 -5 z m 0 0" fill="url(#x)"/>
    <path d="m 111.632812 13.660156 l 0.5 -0.867187 l 10.390626 6 l -0.5 0.867187 z m 0 0" fill="#a51d2d"/>
</svg>
