<?xml version="1.0" encoding="UTF-8" standalone="no"?>
<!-- Generator: Gravit.io -->
<svg xmlns="http://www.w3.org/2000/svg" xmlns:xlink="http://www.w3.org/1999/xlink" style="isolation:isolate" viewBox="0 0 512 512" width="512px" height="512px"><path d=" M 372.048 486.184 L 312.169 498.981 L 252.29 511.778 C 242.618 513.845 227.45 512.212 218.44 508.134 L 162.543 482.834 L 106.646 457.534 C 97.635 453.456 86.353 443.164 81.467 434.565 L 50.865 380.71 L 20.263 326.856 C 15.377 318.257 12.25 303.29 13.285 293.454 L 19.793 231.618 L 26.3 169.781 C 27.335 159.945 33.52 145.966 40.102 138.585 L 81.194 92.504 L 122.287 46.424 C 128.869 39.042 142.066 31.371 151.738 29.304 L 211.617 16.507 L 271.496 3.71 C 281.168 1.643 296.335 3.275 305.346 7.354 L 361.243 32.654 L 417.14 57.953 C 426.15 62.032 437.432 72.324 442.319 80.923 L 472.92 134.777 L 503.522 188.631 C 508.408 197.23 511.535 212.197 510.5 222.033 L 503.993 283.87 L 497.485 345.707 C 496.45 355.543 490.266 369.521 483.683 376.903 L 442.591 422.983 L 401.499 469.064 C 394.916 476.446 381.72 484.117 372.048 486.184 Z " fill="rgb(152,0,0)"/><path d=" M 311.502 267.52 C 312.477 262.441 309.275 257.51 304.267 256.513 C 299.259 255.516 294.35 258.789 293.353 263.797 C 292.378 268.876 295.58 273.807 300.588 274.804 C 305.525 275.824 310.457 272.622 311.502 267.52 Z  M 423.54 317.103 C 423.582 317.481 423.529 317.81 423.406 318.162 C 425.541 321.945 427.294 326.005 428.643 330.271 C 439.729 365.323 420.377 402.806 385.467 413.847 C 380.846 415.309 376.209 416.228 371.557 416.604 C 371.294 415.279 370.89 413.999 370.32 412.693 C 369.522 410.912 368.534 409.27 367.328 407.93 C 364.92 405.016 362.105 402.543 359.091 400.681 C 362.874 390.881 363.517 379.806 360.122 369.07 C 355.579 354.708 344.856 343.552 330.643 338.427 C 326.398 336.876 312.632 327.229 309.476 323.926 C 308.409 322.778 307.484 321.584 306.675 320.51 L 306.259 319.938 C 307.987 316.498 310.044 313.11 312.426 310.01 C 321.808 325.579 340.91 333.303 358.259 327.816 C 375.607 322.329 386.794 305.026 385.517 286.894 C 396.5 290.46 406.353 296.885 414.1 305.306 C 410.88 293.889 403.803 277.2 388.401 266.585 C 371.203 254.74 347.597 253.054 318.222 261.563 C 316.351 262.076 314.456 261.033 313.872 259.184 C 313.381 257.384 314.33 255.442 316.179 254.857 L 316.25 254.835 C 347.781 245.723 373.363 247.721 392.381 260.868 C 420.175 280 423.375 315.591 423.54 317.103 L 423.54 317.103 Z  M 304.403 328.659 C 303.081 327.2 302.04 325.887 301.115 324.693 C 298.572 321.352 298.202 320.922 294.86 321.979 C 290.95 323.215 290.838 324.346 290.409 329.174 C 290.32 330.375 290.205 331.741 289.97 333.224 C 289.253 338.378 283.968 355.3 280.591 360.201 C 273.08 371.072 271.252 384.891 275.678 397.341 C 278.388 404.968 283.321 411.607 289.841 416.403 C 291.763 414.075 293.963 412.127 296.459 410.869 C 296.65 410.73 296.792 410.685 297.005 410.618 C 298.57 410.123 300.351 410.811 301.153 412.356 C 301.497 412.951 301.558 413.636 301.453 414.295 C 301.341 415.425 300.736 416.477 299.665 417.05 C 294.483 419.706 290.526 426.98 289.856 435.247 C 289.767 436.449 289.865 437.747 290.105 439.001 C 290.364 440.562 290.956 441.939 291.645 443.128 C 291.716 443.106 291.81 443.155 291.881 443.132 C 294.048 443.307 298.434 443.328 301.12 440.445 C 303.735 437.584 304.335 432.311 302.798 424.976 L 301.977 421.638 C 301.485 419.838 302.529 417.943 304.306 417.381 L 304.449 417.336 C 305.347 417.093 306.305 417.217 307.112 417.68 C 307.919 418.144 308.508 418.91 308.75 419.808 C 311.917 431.555 311.03 440.126 306.163 445.263 C 304.39 447.075 302.344 448.27 300.304 448.993 C 300.727 449.094 301.221 449.172 301.622 449.202 C 306.098 449.507 312.213 447.573 314.65 440.937 C 315.046 439.716 315.371 438.519 315.46 437.317 C 316.056 429.308 313.579 421.723 309.06 418.068 C 308.128 417.346 307.745 416.137 307.857 415.007 C 307.913 414.442 308.089 413.761 308.545 413.225 C 309.794 411.735 311.991 411.51 313.459 412.688 C 316.813 415.381 319.251 419.381 320.807 424.051 C 322.816 423.728 324.803 423.334 326.723 422.727 L 327.15 422.592 C 328.216 422.255 329.238 421.776 330.282 421.367 C 328.775 416.604 328.425 411.787 329.67 407.561 C 330.244 405.737 332.15 404.686 333.999 405.175 C 334.68 405.351 335.193 405.736 335.586 406.237 C 336.327 407.098 336.687 408.235 336.362 409.433 C 334.766 415.022 337.03 422.674 342.194 428.862 C 342.958 429.794 343.842 430.609 344.938 431.357 C 350.842 435.434 356.886 433.523 360.35 430.628 C 360.661 430.374 361.02 430.026 361.308 429.7 C 359.224 430.281 356.885 430.551 354.369 430.017 C 347.34 428.564 341.779 422.111 337.616 410.679 C 337.298 409.805 337.339 408.839 337.733 407.996 C 338.127 407.153 338.839 406.5 339.714 406.183 L 339.856 406.138 C 341.634 405.576 343.577 406.526 344.21 408.281 C 344.57 409.418 345.049 410.44 345.458 411.484 C 348.417 418.369 351.963 422.41 355.725 423.175 C 359.58 423.989 363.157 421.45 364.829 420.061 C 364.9 420.039 364.949 419.945 365.02 419.923 C 364.751 417.184 363.684 414.584 361.952 412.446 C 356.649 406.067 349.23 402.392 343.463 403.199 C 342.258 403.345 341.157 402.833 340.416 401.972 C 340.023 401.471 339.607 400.899 339.547 400.214 C 339.318 398.533 340.326 396.929 341.941 396.406 C 342.154 396.339 342.318 396.365 342.532 396.298 C 345.818 395.806 349.347 396.332 352.866 397.566 C 355.894 389.334 356.343 380.12 353.509 371.161 C 349.619 358.861 340.427 349.333 328.325 344.948 C 322.954 343.049 308.278 332.752 304.403 328.659 L 304.403 328.659 Z  M 302.69 375.424 C 303.51 378.015 302.073 380.781 299.482 381.6 C 296.89 382.42 294.125 380.983 293.305 378.392 C 292.485 375.8 293.922 373.035 296.513 372.215 C 299.073 371.406 301.81 372.886 302.69 375.424 Z  M 300.678 327.021 C 300.593 329.473 298.766 328.643 297.202 329.137 C 295.567 329.655 294.621 331.362 293.119 329.334 C 293.123 329.098 293.078 328.956 293.104 328.791 C 292.979 326.171 293.884 324.086 295.448 323.592 C 297.084 323.074 298.974 324.354 300.356 326.497 C 300.401 326.64 300.54 326.83 300.678 327.021 L 300.678 327.021 Z  M 329.85 366.834 C 330.462 368.531 330.096 370.427 328.897 371.775 C 327.698 373.122 325.857 373.706 324.101 373.296 C 322.344 372.885 320.952 371.546 320.475 369.807 C 319.774 367.258 321.213 364.611 323.733 363.811 C 326.253 363.012 328.954 364.347 329.85 366.834 Z " fill="rgb(0,0,0)"/><path d=" M 277.921 190.266 C 272.842 189.291 267.91 192.493 266.913 197.501 C 265.916 202.509 269.189 207.418 274.197 208.415 C 279.277 209.39 284.208 206.188 285.205 201.18 C 286.225 196.243 283.023 191.311 277.921 190.266 Z  M 327.503 78.228 C 327.881 78.186 328.211 78.239 328.563 78.362 C 332.346 76.227 336.406 74.474 340.672 73.125 C 375.724 62.039 413.207 81.391 424.248 116.301 C 425.709 120.922 426.628 125.559 427.005 130.211 C 425.68 130.473 424.4 130.878 423.094 131.448 C 421.313 132.246 419.67 133.234 418.331 134.44 C 415.416 136.848 412.944 139.663 411.081 142.677 C 401.282 138.894 390.207 138.251 379.471 141.646 C 365.109 146.189 353.953 156.912 348.828 171.125 C 347.276 175.37 337.63 189.136 334.327 192.292 C 333.178 193.359 331.985 194.284 330.911 195.093 L 330.339 195.509 C 326.898 193.781 323.51 191.724 320.41 189.341 C 335.979 179.96 343.703 160.858 338.217 143.509 C 332.73 126.161 315.427 114.974 297.295 116.251 C 300.86 105.268 307.286 95.415 315.707 87.668 C 304.29 90.888 287.601 97.965 276.986 113.366 C 265.14 130.565 263.455 154.17 271.964 183.546 C 272.477 185.417 271.434 187.312 269.585 187.896 C 267.785 188.387 265.842 187.438 265.258 185.589 L 265.235 185.518 C 256.123 153.987 258.122 128.405 271.269 109.387 C 290.401 81.593 325.992 78.393 327.503 78.228 L 327.503 78.228 Z  M 339.06 197.365 C 337.601 198.687 336.287 199.728 335.094 200.653 C 331.753 203.195 331.323 203.566 332.379 206.908 C 333.616 210.818 334.746 210.93 339.575 211.358 C 340.776 211.448 342.142 211.563 343.624 211.798 C 348.778 212.515 365.701 217.8 370.601 221.177 C 381.472 228.688 395.291 230.516 407.741 226.09 C 415.368 223.38 422.008 218.447 426.804 211.927 C 424.475 210.004 422.528 207.805 421.27 205.309 C 421.131 205.118 421.086 204.976 421.019 204.763 C 420.524 203.198 421.212 201.417 422.757 200.615 C 423.352 200.27 424.037 200.21 424.696 200.315 C 425.826 200.427 426.878 201.032 427.451 202.103 C 430.107 207.285 437.38 211.241 445.648 211.912 C 446.849 212.001 448.148 211.903 449.402 211.663 C 450.962 211.404 452.339 210.812 453.529 210.123 C 453.507 210.052 453.555 209.958 453.533 209.887 C 453.708 207.72 453.728 203.334 450.845 200.648 C 447.985 198.033 442.711 197.433 435.376 198.97 L 432.038 199.791 C 430.238 200.282 428.344 199.239 427.782 197.462 L 427.737 197.319 C 427.494 196.421 427.617 195.463 428.081 194.656 C 428.545 193.849 429.31 193.26 430.209 193.018 C 441.956 189.85 450.527 190.738 455.664 195.604 C 457.476 197.378 458.671 199.424 459.394 201.464 C 459.495 201.041 459.573 200.547 459.603 200.146 C 459.908 195.67 457.974 189.555 451.337 187.118 C 450.117 186.722 448.919 186.397 447.718 186.307 C 439.708 185.712 432.123 188.189 428.469 192.708 C 427.747 193.64 426.538 194.023 425.408 193.911 C 424.843 193.855 424.161 193.679 423.626 193.223 C 422.136 191.974 421.91 189.777 423.089 188.309 C 425.782 184.955 429.782 182.516 434.452 180.961 C 434.129 178.952 433.735 176.964 433.128 175.045 L 432.993 174.618 C 432.656 173.552 432.176 172.53 431.768 171.486 C 427.004 172.993 422.188 173.343 417.962 172.098 C 416.138 171.524 415.087 169.618 415.576 167.769 C 415.751 167.088 416.137 166.575 416.638 166.182 C 417.498 165.44 418.636 165.081 419.834 165.406 C 425.422 167.001 433.075 164.738 439.263 159.574 C 440.195 158.81 441.01 157.926 441.758 156.829 C 445.835 150.926 443.924 144.882 441.029 141.418 C 440.775 141.107 440.426 140.748 440.101 140.46 C 440.682 142.544 440.952 144.883 440.418 147.399 C 438.965 154.428 432.511 159.989 421.08 164.151 C 420.205 164.47 419.24 164.428 418.397 164.035 C 417.553 163.641 416.901 162.929 416.584 162.054 L 416.539 161.912 C 415.977 160.134 416.926 158.191 418.681 157.558 C 419.819 157.198 420.841 156.719 421.885 156.31 C 428.77 153.351 432.81 149.805 433.576 146.043 C 434.39 142.188 431.851 138.611 430.462 136.939 C 430.439 136.868 430.346 136.819 430.323 136.748 C 427.585 137.017 424.985 138.084 422.847 139.816 C 416.468 145.119 412.792 152.538 413.599 158.305 C 413.746 159.51 413.234 160.611 412.373 161.352 C 411.872 161.745 411.299 162.161 410.614 162.221 C 408.933 162.45 407.33 161.442 406.807 159.827 C 406.74 159.614 406.766 159.449 406.698 159.236 C 406.207 155.95 406.733 152.421 407.966 148.902 C 399.735 145.874 390.521 145.425 381.562 148.259 C 369.262 152.149 359.733 161.341 355.348 173.443 C 353.449 178.814 343.152 193.49 339.06 197.365 L 339.06 197.365 Z  M 385.824 199.078 C 388.416 198.258 391.181 199.695 392.001 202.286 C 392.821 204.878 391.384 207.643 388.792 208.463 C 386.201 209.283 383.435 207.846 382.616 205.254 C 381.806 202.695 383.287 199.958 385.824 199.078 Z  M 337.422 201.09 C 339.873 201.175 339.043 203.001 339.538 204.566 C 340.055 206.201 341.762 207.147 339.734 208.649 C 339.499 208.645 339.356 208.69 339.192 208.664 C 336.572 208.789 334.487 207.884 333.992 206.32 C 333.475 204.684 334.754 202.794 336.898 201.412 C 337.04 201.367 337.231 201.228 337.422 201.09 L 337.422 201.09 Z  M 377.235 171.918 C 378.932 171.306 380.828 171.672 382.175 172.871 C 383.523 174.07 384.107 175.911 383.696 177.667 C 383.286 179.424 381.947 180.815 380.208 181.293 C 377.658 181.994 375.011 180.555 374.212 178.035 C 373.413 175.515 374.748 172.814 377.235 171.918 Z " fill="rgb(0,0,0)"/><path d=" M 193.884 230.945 C 192.909 236.024 196.112 240.955 201.12 241.953 C 206.128 242.95 211.036 239.677 212.034 234.668 C 213.008 229.589 209.806 224.658 204.798 223.661 C 199.861 222.641 194.93 225.843 193.884 230.945 Z  M 81.846 181.362 C 81.805 180.984 81.857 180.655 81.981 180.303 C 79.846 176.52 78.092 172.46 76.743 168.194 C 65.657 133.142 85.009 95.659 119.919 84.618 C 124.541 83.157 129.178 82.238 133.829 81.861 C 134.092 83.186 134.497 84.466 135.066 85.772 C 135.864 87.553 136.853 89.196 138.059 90.535 C 140.466 93.449 143.282 95.922 146.296 97.785 C 142.512 107.584 141.87 118.659 145.265 129.395 C 149.807 143.757 160.531 154.913 174.744 160.038 C 178.989 161.59 192.754 171.236 195.911 174.539 C 196.978 175.688 197.903 176.881 198.712 177.955 L 199.127 178.527 C 197.4 181.968 195.343 185.356 192.96 188.455 C 183.578 172.886 164.476 165.162 147.128 170.649 C 129.779 176.136 118.593 193.439 119.869 211.571 C 108.887 208.006 99.034 201.58 91.287 193.159 C 94.506 204.576 101.583 221.265 116.985 231.88 C 134.184 243.725 157.789 245.411 187.165 236.902 C 189.036 236.389 190.93 237.432 191.515 239.281 C 192.006 241.081 191.056 243.024 189.208 243.608 L 189.136 243.631 C 157.605 252.743 132.023 250.744 113.005 237.597 C 85.212 218.465 82.012 182.874 81.846 181.362 L 81.846 181.362 Z  M 200.984 169.806 C 202.305 171.265 203.346 172.579 204.271 173.772 C 206.814 177.113 207.185 177.543 210.526 176.486 C 214.437 175.25 214.549 174.119 214.977 169.291 C 215.066 168.09 215.182 166.724 215.417 165.242 C 216.133 160.088 221.418 143.165 224.796 138.265 C 232.307 127.393 234.135 113.575 229.709 101.124 C 226.999 93.498 222.066 86.858 215.546 82.062 C 213.623 84.391 211.423 86.338 208.927 87.596 C 208.737 87.735 208.594 87.78 208.381 87.847 C 206.817 88.342 205.035 87.654 204.234 86.109 C 203.889 85.514 203.829 84.829 203.933 84.17 C 204.045 83.04 204.651 81.988 205.721 81.415 C 210.904 78.759 214.86 71.486 215.53 63.218 C 215.619 62.016 215.522 60.718 215.282 59.464 C 215.023 57.904 214.431 56.527 213.742 55.337 C 213.67 55.359 213.577 55.311 213.506 55.333 C 211.339 55.158 206.952 55.138 204.266 58.021 C 201.652 60.881 201.051 66.155 202.589 73.489 L 203.41 76.828 C 203.901 78.628 202.858 80.522 201.08 81.084 L 200.938 81.129 C 200.04 81.372 199.082 81.249 198.275 80.785 C 197.468 80.321 196.878 79.556 196.637 78.657 C 193.469 66.91 194.356 58.339 199.223 53.202 C 200.996 51.39 203.043 50.195 205.082 49.472 C 204.659 49.371 204.165 49.293 203.765 49.263 C 199.289 48.958 193.174 50.892 190.737 57.529 C 190.34 58.749 190.015 59.947 189.926 61.148 C 189.331 69.157 191.808 76.743 196.327 80.397 C 197.259 81.119 197.641 82.328 197.529 83.458 C 197.474 84.023 197.298 84.705 196.842 85.24 C 195.592 86.73 193.395 86.956 191.928 85.777 C 188.573 83.084 186.135 79.084 184.58 74.414 C 182.57 74.737 180.583 75.131 178.663 75.738 L 178.237 75.873 C 177.17 76.21 176.149 76.69 175.105 77.098 C 176.611 81.862 176.961 86.678 175.717 90.904 C 175.143 92.728 173.236 93.779 171.388 93.29 C 170.707 93.115 170.194 92.729 169.8 92.228 C 169.059 91.367 168.699 90.23 169.024 89.032 C 170.62 83.444 168.356 75.791 163.192 69.603 C 162.429 68.671 161.545 67.856 160.448 67.108 C 154.544 63.031 148.501 64.942 145.036 67.837 C 144.726 68.091 144.367 68.44 144.079 68.765 C 146.163 68.184 148.502 67.914 151.017 68.448 C 158.047 69.901 163.607 76.354 167.77 87.786 C 168.089 88.661 168.047 89.626 167.654 90.469 C 167.26 91.313 166.547 91.965 165.672 92.282 L 165.53 92.327 C 163.753 92.889 161.81 91.939 161.177 90.184 C 160.817 89.047 160.337 88.025 159.929 86.981 C 156.969 80.096 153.423 76.056 149.662 75.29 C 145.806 74.476 142.23 77.015 140.557 78.404 C 140.486 78.427 140.438 78.52 140.366 78.543 C 140.635 81.281 141.702 83.881 143.435 86.019 C 148.737 92.398 156.157 96.074 161.924 95.267 C 163.129 95.12 164.229 95.632 164.971 96.493 C 165.364 96.994 165.779 97.567 165.84 98.251 C 166.068 99.933 165.06 101.536 163.446 102.059 C 163.233 102.126 163.068 102.1 162.855 102.168 C 159.569 102.659 156.039 102.133 152.521 100.899 C 149.493 109.131 149.044 118.345 151.877 127.304 C 155.767 139.604 164.96 149.133 177.061 153.518 C 182.433 155.416 197.108 165.714 200.984 169.806 L 200.984 169.806 Z  M 202.696 123.042 C 201.877 120.45 203.313 117.685 205.905 116.865 C 208.496 116.045 211.262 117.482 212.082 120.073 C 212.901 122.665 211.465 125.43 208.873 126.25 C 206.313 127.06 203.577 125.579 202.696 123.042 Z  M 204.708 171.444 C 204.793 168.993 206.62 169.823 208.184 169.328 C 209.82 168.811 210.766 167.104 212.267 169.132 C 212.264 169.367 212.309 169.509 212.283 169.674 C 212.407 172.294 211.502 174.379 209.938 174.874 C 208.303 175.391 206.412 174.112 205.03 171.968 C 204.985 171.826 204.847 171.635 204.708 171.444 L 204.708 171.444 Z  M 175.536 131.631 C 174.924 129.934 175.29 128.038 176.489 126.691 C 177.689 125.343 179.529 124.759 181.286 125.17 C 183.043 125.58 184.434 126.919 184.912 128.658 C 185.612 131.208 184.174 133.855 181.654 134.654 C 179.134 135.453 176.433 134.118 175.536 131.631 Z " fill="rgb(0,0,0)"/><path d=" M 234.564 306.608 C 239.643 307.583 244.574 304.381 245.571 299.373 C 246.568 294.365 243.295 289.456 238.287 288.459 C 233.208 287.484 228.277 290.686 227.279 295.694 C 226.26 300.631 229.462 305.563 234.564 306.608 Z  M 184.981 418.646 C 184.603 418.687 184.274 418.635 183.922 418.512 C 180.139 420.647 176.079 422.4 171.813 423.749 C 136.761 434.835 99.278 415.483 88.237 380.573 C 86.775 375.951 85.856 371.315 85.48 366.663 C 86.805 366.4 88.085 365.996 89.39 365.426 C 91.172 364.628 92.814 363.639 94.154 362.434 C 97.068 360.026 99.541 357.21 101.403 354.197 C 111.203 357.98 122.278 358.623 133.014 355.227 C 147.376 350.685 158.532 339.962 163.657 325.749 C 165.208 321.504 174.854 307.738 178.158 304.582 C 179.306 303.514 180.5 302.59 181.574 301.781 L 182.146 301.365 C 185.586 303.093 188.974 305.15 192.074 307.532 C 176.505 316.914 168.781 336.016 174.268 353.365 C 179.754 370.713 197.058 381.9 215.19 380.623 C 211.624 391.605 205.199 401.459 196.777 409.206 C 208.195 405.986 224.884 398.909 235.499 383.507 C 247.344 366.309 249.029 342.703 240.521 313.327 C 240.007 311.456 241.051 309.562 242.899 308.977 C 244.699 308.486 246.642 309.436 247.227 311.285 L 247.249 311.356 C 256.361 342.887 254.362 368.469 241.215 387.487 C 222.084 415.28 186.493 418.481 184.981 418.646 L 184.981 418.646 Z  M 173.425 299.509 C 174.884 298.187 176.197 297.146 177.391 296.221 C 180.732 293.678 181.162 293.308 180.105 289.966 C 178.868 286.055 177.738 285.944 172.91 285.515 C 171.708 285.426 170.342 285.311 168.86 285.075 C 163.706 284.359 146.784 279.074 141.883 275.697 C 131.012 268.186 117.193 266.358 104.743 270.784 C 97.116 273.493 90.476 278.427 85.681 284.947 C 88.009 286.869 89.956 289.069 91.215 291.565 C 91.354 291.756 91.399 291.898 91.466 292.111 C 91.961 293.675 91.273 295.457 89.727 296.259 C 89.133 296.603 88.448 296.664 87.789 296.559 C 86.659 296.447 85.607 295.841 85.034 294.771 C 82.378 289.589 75.104 285.632 66.836 284.962 C 65.635 284.873 64.336 284.971 63.083 285.211 C 61.522 285.47 60.145 286.062 58.955 286.751 C 58.978 286.822 58.929 286.915 58.952 286.987 C 58.777 289.154 58.756 293.54 61.639 296.226 C 64.5 298.841 69.773 299.441 77.108 297.903 L 80.446 297.082 C 82.246 296.591 84.14 297.635 84.702 299.412 L 84.747 299.554 C 84.991 300.453 84.867 301.411 84.403 302.218 C 83.94 303.025 83.174 303.614 82.275 303.856 C 70.529 307.023 61.958 306.136 56.821 301.269 C 55.009 299.496 53.814 297.449 53.091 295.41 C 52.99 295.833 52.911 296.327 52.882 296.727 C 52.577 301.204 54.51 307.318 61.147 309.756 C 62.367 310.152 63.565 310.477 64.767 310.566 C 72.776 311.162 80.361 308.685 84.016 304.166 C 84.738 303.233 85.946 302.851 87.077 302.963 C 87.642 303.019 88.323 303.194 88.859 303.651 C 90.349 304.9 90.574 307.097 89.396 308.565 C 86.703 311.919 82.703 314.357 78.033 315.912 C 78.355 317.922 78.749 319.909 79.356 321.829 L 79.491 322.256 C 79.829 323.322 80.308 324.344 80.717 325.388 C 85.48 323.881 90.297 323.531 94.523 324.775 C 96.347 325.349 97.397 327.256 96.909 329.105 C 96.733 329.786 96.348 330.299 95.846 330.692 C 94.986 331.433 93.848 331.793 92.651 331.468 C 87.062 329.872 79.41 332.136 73.221 337.3 C 72.29 338.064 71.474 338.947 70.726 340.044 C 66.649 345.948 68.561 351.992 71.455 355.456 C 71.71 355.767 72.058 356.126 72.384 356.414 C 71.803 354.329 71.532 351.99 72.067 349.475 C 73.519 342.446 79.973 336.885 91.405 332.722 C 92.279 332.403 93.244 332.445 94.088 332.839 C 94.931 333.232 95.583 333.945 95.901 334.82 L 95.946 334.962 C 96.508 336.74 95.558 338.682 93.803 339.316 C 92.665 339.676 91.644 340.155 90.6 340.563 C 83.715 343.523 79.674 347.069 78.909 350.831 C 78.094 354.686 80.633 358.263 82.023 359.935 C 82.045 360.006 82.139 360.055 82.161 360.126 C 84.9 359.857 87.5 358.79 89.638 357.058 C 96.016 351.755 99.692 344.336 98.885 338.569 C 98.739 337.364 99.251 336.263 100.111 335.522 C 100.613 335.129 101.185 334.713 101.87 334.653 C 103.551 334.424 105.155 335.432 105.677 337.046 C 105.745 337.26 105.719 337.424 105.786 337.638 C 106.278 340.923 105.752 344.453 104.518 347.972 C 112.749 351 121.964 351.448 130.922 348.615 C 143.223 344.725 152.751 335.533 157.136 323.431 C 159.035 318.06 169.332 303.384 173.425 299.509 L 173.425 299.509 Z  M 126.66 297.796 C 124.069 298.616 121.303 297.179 120.484 294.588 C 119.664 291.996 121.1 289.23 123.692 288.411 C 126.284 287.591 129.049 289.028 129.869 291.619 C 130.678 294.179 129.197 296.915 126.66 297.796 Z  M 175.063 295.784 C 172.611 295.699 173.441 293.872 172.946 292.308 C 172.429 290.673 170.722 289.727 172.75 288.225 C 172.986 288.229 173.128 288.184 173.293 288.21 C 175.913 288.085 177.998 288.99 178.492 290.554 C 179.009 292.189 177.73 294.08 175.586 295.462 C 175.444 295.507 175.253 295.646 175.063 295.784 L 175.063 295.784 Z  M 135.25 324.956 C 133.553 325.568 131.657 325.202 130.309 324.003 C 128.961 322.804 128.378 320.963 128.788 319.207 C 129.199 317.45 130.537 316.058 132.277 315.58 C 134.826 314.88 137.473 316.319 138.272 318.839 C 139.071 321.359 137.737 324.06 135.25 324.956 Z " fill="rgb(0,0,0)"/></svg>