<?xml version="1.0" encoding="UTF-8" standalone="no"?>
<!-- Generator: Gravit.io -->
<svg xmlns="http://www.w3.org/2000/svg" xmlns:xlink="http://www.w3.org/1999/xlink" style="isolation:isolate" viewBox="0 0 128 128" width="128px" height="128px"><defs><clipPath id="_clipPath_mf3rgjqKt6ALzjbSDwLNFle5nFUse09B"><rect width="128" height="128"/></clipPath></defs><g clip-path="url(#_clipPath_mf3rgjqKt6ALzjbSDwLNFle5nFUse09B)"><path d=" M 64.998 16.68 L 95.843 27.214 L 112.253 53.884 L 106.555 84.212 L 81.412 104.007 L 48.588 104.007 L 23.445 84.212 L 17.747 53.884 L 34.157 27.214 L 65.002 16.68 L 64.998 16.68 Z " fill-rule="evenodd" fill="rgb(195,207,217)"/><path d=" M 45.673 69.318 C 46.581 69.2 47.459 68.994 48.299 68.689 C 48.221 68.817 48.143 68.935 48.065 69.063 C 47.489 69.997 46.884 70.96 45.8 71.157 L 44.668 71.186 C 45.185 70.547 45.79 69.702 45.673 69.318 L 45.673 69.318 Z  M 25.07 55.506 C 25.099 55.437 25.138 55.417 25.167 55.417 C 25.343 55.368 25.499 55.378 25.626 55.457 C 25.938 55.643 26.046 56.145 26.046 56.145 C 26.056 56.204 26.095 56.253 26.143 56.273 L 26.134 56.292 L 26.29 56.292 C 27.159 56.322 28.339 56.351 29.228 55.643 C 30.623 54.532 31.736 54.818 31.785 54.827 L 32.214 54.827 C 32.38 54.552 32.849 53.864 33.542 53.657 C 33.952 53.539 34.391 53.608 34.83 53.874 C 36.011 54.572 36.118 55.692 35.855 56.44 C 35.62 57.098 35.123 57.511 34.635 57.433 C 34.527 57.413 34.43 57.492 34.41 57.6 C 34.391 57.708 34.469 57.806 34.576 57.826 C 34.635 57.836 34.693 57.836 34.752 57.836 C 35.152 57.836 35.542 57.619 35.845 57.256 L 35.904 57.285 C 37.485 57.806 39.046 57.59 40.696 57.374 C 41.193 57.305 41.711 57.236 42.228 57.187 C 43.009 57.118 43.819 57.206 44.6 57.295 L 45.4 57.383 C 48.055 57.816 50.29 59.733 51.686 62.781 C 52.008 63.479 52.203 64.196 52.261 64.924 C 53.901 65.032 55.326 63.941 55.873 62.073 C 56.283 60.697 55.96 59.409 55.619 58.052 C 55.404 57.206 55.189 56.331 55.141 55.417 C 55.072 53.943 55.443 52.586 56.185 51.583 C 57.346 50 59.025 49.214 60.909 49.361 C 62.744 49.509 64.139 50.413 64.735 51.839 C 65.194 52.93 65.047 54.198 64.374 55.063 C 63.71 55.919 62.529 56.302 61.504 55.997 C 61.241 55.919 60.997 55.791 60.772 55.633 C 60.684 55.565 60.626 55.466 60.616 55.358 C 60.597 55.25 60.626 55.142 60.694 55.053 C 60.762 54.965 60.86 54.906 60.967 54.896 C 61.075 54.876 61.182 54.906 61.27 54.975 C 61.407 55.083 61.563 55.162 61.738 55.211 C 62.441 55.417 63.271 55.142 63.729 54.562 C 64.217 53.923 64.315 52.979 63.973 52.163 C 63.505 51.023 62.363 50.305 60.841 50.187 C 59.25 50.059 57.825 50.738 56.839 52.075 C 56.214 52.93 55.902 54.1 55.96 55.378 C 56 56.214 56.204 57.049 56.409 57.845 C 56.761 59.251 57.132 60.716 56.653 62.309 C 56.019 64.432 54.428 65.75 52.496 65.75 C 52.427 65.75 52.349 65.75 52.281 65.74 C 52.261 66.054 52.222 66.369 52.164 66.674 C 51.627 68.552 50.28 70.144 48.367 71.167 C 47.791 71.422 47.215 71.353 46.61 71.255 C 47.401 70.832 47.908 70.026 48.396 69.24 C 48.592 68.925 48.777 68.62 48.982 68.345 C 49.05 68.257 49.031 68.139 48.943 68.07 C 48.855 68.001 48.738 68.021 48.67 68.109 C 48.67 68.109 48.67 68.119 48.66 68.119 C 48.631 68.119 48.611 68.119 48.582 68.129 C 45.127 69.535 40.803 69.259 37.016 67.401 C 36.958 67.372 36.899 67.372 36.84 67.401 C 37.084 66.969 37.27 66.546 37.319 66.163 C 37.338 66.054 37.26 65.956 37.153 65.936 C 37.045 65.917 36.948 65.995 36.928 66.104 C 36.743 67.441 34.664 69.554 34.576 69.653 L 33.239 70.862 L 31.541 70.734 C 31.951 70.439 32.546 69.948 33.054 69.23 C 33.942 67.972 31.863 63.636 31.629 63.144 C 31.629 63.144 31.629 63.135 31.619 63.135 C 31.619 63.125 31.609 63.125 31.609 63.115 C 31.609 63.105 31.599 63.105 31.599 63.105 C 31.599 63.095 31.59 63.095 31.59 63.095 C 31.59 63.095 31.58 63.085 31.57 63.085 C 31.57 63.085 31.56 63.076 31.551 63.076 C 31.541 63.076 31.541 63.066 31.531 63.066 C 31.531 63.066 31.521 63.066 31.521 63.056 C 29.081 62.063 26.807 60.431 25.978 59.104 C 25.704 58.661 25.48 58.131 25.353 57.659 L 25.343 57.678 C 25.128 56.98 24.875 55.879 25.07 55.506 L 25.07 55.506 Z  M 30.701 57.836 C 30.975 57.836 31.189 57.61 31.189 57.344 C 31.189 57.079 30.965 56.853 30.701 56.853 C 30.438 56.853 30.213 57.079 30.213 57.344 C 30.213 57.61 30.428 57.836 30.701 57.836 Z " fill="rgb(27,19,13)"/><path d=" M 104.603 52.925 C 103.909 52.735 103.706 53.262 103.658 53.694 C 103.533 53.694 103.407 53.694 103.262 53.705 C 102.471 53.726 101.478 53.758 100.803 53.167 C 99.385 51.944 98.15 52.06 97.783 52.134 C 97.484 51.702 96.992 51.132 96.298 50.911 C 95.7 50.721 95.092 50.827 94.484 51.217 C 92.96 52.197 92.835 53.789 93.182 54.854 C 93.191 54.875 93.201 54.907 93.211 54.928 C 91.908 55.286 90.558 55.086 89.13 54.875 C 88.629 54.801 88.108 54.728 87.587 54.675 C 86.738 54.591 85.908 54.696 85.098 54.791 L 84.317 54.886 L 84.288 54.886 C 81.432 55.392 79.05 57.595 77.564 61.085 C 77.082 62.213 76.869 63.405 76.908 64.564 C 75.355 64.849 73.975 63.795 73.455 61.908 C 73.098 60.59 73.377 59.346 73.686 58.028 C 73.879 57.195 74.082 56.33 74.12 55.424 C 74.188 53.958 73.84 52.587 73.156 51.586 C 72.075 50.004 70.532 49.214 68.795 49.361 C 67.117 49.509 65.795 50.437 65.245 51.87 C 64.821 52.988 64.956 54.274 65.583 55.16 C 66.21 56.035 67.319 56.425 68.294 56.119 C 68.544 56.035 68.776 55.909 68.988 55.74 C 69.2 55.561 69.239 55.234 69.085 55.002 C 68.923 54.773 68.623 54.726 68.409 54.896 C 68.294 54.991 68.168 55.065 68.024 55.107 C 67.435 55.297 66.731 55.044 66.355 54.517 C 65.94 53.937 65.863 53.041 66.142 52.292 C 66.721 50.774 68.245 50.489 68.872 50.437 C 70.29 50.31 71.506 50.943 72.384 52.239 C 72.934 53.051 73.213 54.169 73.156 55.402 C 73.117 56.204 72.943 56.984 72.75 57.796 C 72.432 59.187 72.094 60.632 72.528 62.234 C 73.117 64.364 74.651 65.693 76.416 65.693 C 76.619 65.693 76.821 65.671 77.024 65.64 C 77.033 65.682 77.033 65.724 77.043 65.766 C 77.043 65.777 77.053 65.787 77.053 65.798 C 77.632 68.012 79.088 69.889 81.153 71.08 C 81.162 71.091 81.172 71.091 81.181 71.091 C 81.577 71.28 81.972 71.344 82.349 71.344 C 82.763 71.344 83.159 71.27 83.535 71.196 C 83.545 71.196 83.555 71.196 83.564 71.186 C 83.699 71.186 83.854 71.154 84.027 71.112 L 85.542 71.143 L 85.551 71.143 C 85.735 71.143 85.908 71.027 85.985 70.838 C 86.063 70.648 86.034 70.426 85.908 70.268 C 85.493 69.752 85.098 69.182 84.905 68.813 C 85.252 68.845 85.6 68.856 85.957 68.856 C 88.262 68.856 90.635 68.255 92.892 67.074 C 93.577 68.191 94.445 69.151 94.6 69.319 L 94.619 69.341 L 96.008 70.701 C 96.095 70.785 96.211 70.838 96.327 70.838 L 96.365 70.838 L 98.719 70.648 C 98.932 70.627 99.107 70.456 99.149 70.227 C 99.192 69.998 99.091 69.766 98.902 69.657 C 98.893 69.646 97.899 69.087 97.137 67.928 C 97.069 67.833 96.799 67.232 97.6 64.786 C 97.947 63.721 98.362 62.73 98.526 62.34 C 100.87 61.254 103.253 59.346 104.256 57.732 C 104.642 57.1 105.144 55.508 104.922 54.559 C 105.028 53.947 105.105 53.062 104.603 52.925 L 104.603 52.925 Z  M 84.51 70.047 L 84.027 70.036 C 83.198 69.868 82.686 69.119 82.194 68.276 C 82.725 68.444 83.275 68.571 83.825 68.666 C 83.873 68.94 84.037 69.372 84.51 70.047 Z  M 103.455 57.1 C 102.539 58.576 100.195 60.432 97.986 61.401 C 97.976 61.401 97.966 61.412 97.957 61.412 C 97.938 61.423 97.928 61.433 97.909 61.444 C 97.899 61.454 97.889 61.465 97.87 61.475 C 97.86 61.486 97.841 61.496 97.831 61.507 L 97.802 61.539 C 97.793 61.549 97.783 61.56 97.774 61.581 C 97.764 61.591 97.754 61.612 97.745 61.623 C 97.735 61.633 97.735 61.644 97.725 61.655 C 97.706 61.707 97.147 62.951 96.674 64.385 C 95.767 67.158 96.047 68.065 96.336 68.508 C 96.645 68.982 96.992 69.372 97.311 69.688 L 96.491 69.752 L 95.265 68.55 C 94.687 67.917 93.172 66.051 93.027 64.933 C 92.988 64.649 92.749 64.449 92.487 64.48 C 92.227 64.522 92.043 64.786 92.072 65.081 C 92.121 65.418 92.236 65.787 92.4 66.156 C 88.764 68.044 84.635 68.307 81.336 66.852 C 81.326 66.842 81.307 66.842 81.297 66.842 C 81.127 66.691 80.884 66.687 80.709 66.831 C 80.606 66.915 80.538 67.04 80.52 67.178 C 80.502 67.317 80.535 67.458 80.612 67.569 C 80.805 67.854 80.989 68.17 81.181 68.508 C 81.529 69.119 81.905 69.783 82.416 70.289 C 82.129 70.306 81.842 70.252 81.577 70.131 C 79.763 69.087 78.48 67.443 77.979 65.524 C 77.728 64.206 77.873 62.867 78.432 61.549 C 79.773 58.386 81.905 56.393 84.423 55.951 L 85.214 55.856 C 86.005 55.761 86.757 55.666 87.5 55.74 C 88.002 55.793 88.503 55.866 88.995 55.94 C 90.548 56.172 92.159 56.404 93.751 55.877 C 94.079 56.235 94.494 56.446 94.909 56.446 C 94.976 56.446 95.053 56.436 95.121 56.425 C 95.381 56.383 95.564 56.109 95.526 55.824 C 95.487 55.539 95.237 55.339 94.976 55.381 C 94.648 55.434 94.272 55.065 94.089 54.517 C 93.857 53.8 93.963 52.788 94.976 52.134 C 95.343 51.892 95.69 51.828 96.018 51.934 C 96.751 52.166 97.214 53.136 97.224 53.146 C 97.349 53.41 97.639 53.505 97.87 53.378 C 97.957 53.325 98.034 53.252 98.073 53.157 C 98.401 53.125 99.221 53.157 100.195 54 C 101.15 54.833 102.385 54.791 103.282 54.759 C 103.552 54.749 103.803 54.738 103.976 54.759 C 104.111 55.107 103.851 56.467 103.455 57.1 L 103.455 57.1 Z  M 98.922 55.012 C 99.192 55.012 99.404 55.244 99.404 55.539 C 99.404 55.835 99.192 56.067 98.922 56.067 C 98.651 56.067 98.439 55.835 98.439 55.539 C 98.439 55.244 98.651 55.012 98.922 55.012 Z " fill="rgb(35,22,17)"/></g></svg>